<svg id="Layer_2" data-name="Layer 2" xmlns="http://www.w3.org/2000/svg" viewBox="0 0 151.85 178.06"><defs><style>.cls-1{fill:none;stroke:#fff;stroke-miterlimit:10;}</style></defs><path class="cls-1" d="M41.89,3.61c-6.21,1.71-11.18,24.92-10.82,40.6C22.39,57.82,21.64,66.07,22,76l-15.32.32-.32,3.21H22.07a28.12,28.12,0,0,0,1.29,9L9.54,92.43l.32,3.21,14.68-3.32a27.13,27.13,0,0,0,4.28,7.18L16,106.25l1,2.57,14.14-6.43c11.83,12.85,28.06,19.25,48.86,19,25-.17,43-6,52.71-18.32l12.54,6.1,1.93-2.89-12.86-7.39,4.82-7.4,13.5,4.5,1.61-3.21-13.82-4.5a80.31,80.31,0,0,0,1.28-8.68l15.43-1-.32-3.22H141.32c1-13.18-3.21-18-2.89-22.18,2.89-3.85,13.5-22.17,9.32-30.85C145.82,15.29,114,17.21,104,24c-12.22-3.85-27-3.85-34.4-2.57C59.68,8.86,49.61,1,41.89,3.61Z" transform="translate(-5.77 -2.62)"/><path class="cls-1" d="M34.61,106.25c-8,15.44-8.36,35.36,4.18,51.11-1.1,11-.46,19.16,3.53,21.53,2,1.88,5.92,1.53,11.25-7.07,18.89,11.08,38.72,11.11,59.47.32,4.49,4.88,8.16,8.1,11.57,7.07,4.71-.44,5.2-9.74,4.5-21.53,10.28-4.5,12.85-43.07,1.93-53" transform="translate(-5.77 -2.62)"/><path class="cls-1" d="M76.39,66.39c3.5,5.46,11.83-3.26,8.2-4.34C78.87,60.36,74.45,64.79,76.39,66.39Z" transform="translate(-5.77 -2.62)"/><path class="cls-1" d="M31.07,44.21C41.24,31.83,53.69,23.5,69.64,21.39" transform="translate(-5.77 -2.62)"/><path class="cls-1" d="M104,24c15.21,6,28.14,14.48,34.5,30.43" transform="translate(-5.77 -2.62)"/><path class="cls-1" d="M118.18,31a25,25,0,0,1,13.06.33,2.77,2.77,0,0,1,1.57,2.29,12.78,12.78,0,0,1-1.29,8.47" transform="translate(-5.77 -2.62)"/><path class="cls-1" d="M42.16,33.29c.45-7.7,1.85-12,4-13.66,3.24-1.05,6.81.7,10.61,4.5" transform="translate(-5.77 -2.62)"/><path class="cls-1" d="M46.18,44.54A16.79,16.79,0,0,1,68,45c4.93,6.19,4.77,12.47-1.5,18.86-7.83,5.31-14.81,4.87-21.22.43C40,57.66,40.7,51.11,46.18,44.54Z" transform="translate(-5.77 -2.62)"/><path class="cls-1" d="M93.75,56.32c-.55-12.62,5.48-17,18-15.21,6.75,2,11.36,6,12.43,12.64.64,7.5-5.14,13.71-15.43,13.5C102.09,67.28,94.39,62.54,93.75,56.32Z" transform="translate(-5.77 -2.62)"/><polyline class="cls-1" points="16.2 73.42 30.98 72.99 30.98 77.7 16.3 76.95"/><polyline class="cls-1" points="17.59 85.95 31.2 82.63 31.84 86.7 18.77 89.7"/><polyline class="cls-1" points="23.05 96.88 35.7 90.77 38.48 93.99 25.3 99.77"/><polyline class="cls-1" points="135.55 72.77 121.25 72.61 121.41 77.27 135.87 76.95"/><polyline class="cls-1" points="134.59 85.63 120.44 80.97 118.68 85.31 133.3 88.85"/><polyline class="cls-1" points="128.48 96.24 116.59 89.81 113.69 93.83 126.87 100.42"/><path class="cls-1" d="M54.75,42.39a18,18,0,0,0-10.07,7.72,12.25,12.25,0,0,0-.86,8.57,11.06,11.06,0,0,0,5.57,5.78c2.61,1.38,5.79,1.74,9.65.86,3.4-.45,6.47-2.61,9.21-6.43,1.73-3.12,2.2-6.2.86-9.21C67.2,46,64.66,43.88,61.61,43A19.84,19.84,0,0,0,54.75,42.39Z" transform="translate(-5.77 -2.62)"/><path class="cls-1" d="M96.48,49.36a10.83,10.83,0,0,0-.16,8.52,11.39,11.39,0,0,0,6.59,6.42,16.63,16.63,0,0,0,10.77,1.13,15.54,15.54,0,0,0,7.39-6.11,14.4,14.4,0,0,0,.48-7.87c-1.52-3.81-4.64-5.92-8.35-7.4a16.49,16.49,0,0,0-11.09,0A11.31,11.31,0,0,0,96.48,49.36Z" transform="translate(-5.77 -2.62)"/><path class="cls-1" d="M53.79,85.87c.71-.77,1.45-1.52,2.22-2.23C73.9,67.38,90.3,68.15,105.32,84.71l2.09,2.09C94.88,73.83,77,75,52.93,86.8Z" transform="translate(-5.77 -2.62)"/><path class="cls-1" d="M114.37,70.65a18.55,18.55,0,0,1-3.06,9.27,3.68,3.68,0,0,0,1.21,4.1,5.55,5.55,0,0,0,3.89,1c1.84-.29,2.73-3.54,2.41-5.15C118.58,76.87,116.12,73.83,114.37,70.65Z" transform="translate(-5.77 -2.62)"/></svg>