<?xml version="1.0" encoding="utf-8"?>
<!-- Generator: Adobe Illustrator 26.0.2, SVG Export Plug-In . SVG Version: 6.00 Build 0)  -->
<svg version="1.1" id="Layer_1" xmlns="http://www.w3.org/2000/svg" xmlns:xlink="http://www.w3.org/1999/xlink" x="0px" y="0px"
	 viewBox="0 0 651 131.9" style="enable-background:new 0 0 651 131.9;" xml:space="preserve">
<style type="text/css">
	.st0{fill:none;stroke:#000000;stroke-width:2;stroke-linejoin:bevel;}
	.st1{fill:#FFFFFF;stroke:#000000;stroke-width:2;stroke-linejoin:bevel;}
	.st2{fill:#FF5722;}
	.st3{fill:#BF411A;}
	.st4{fill:#56B900;}
	.st5{fill:#AAFA66;}
	.st6{fill:#F2F2F2;stroke:#000000;stroke-width:2;stroke-linejoin:bevel;}
	.st7{fill:none;}
	.st8{fill:#FFC93C;}
	.st9{fill:none;stroke:#000000;stroke-width:2;stroke-miterlimit:10;}
	.st10{fill:none;stroke:#000000;stroke-miterlimit:10;}
	.st11{fill:none;stroke:#000000;stroke-linejoin:bevel;}
	.st12{fill:#FFFFFF;stroke:#FFFFFF;stroke-miterlimit:10;}
	.st13{fill:none;stroke:#FFC93C;stroke-width:11.94;stroke-linecap:round;stroke-miterlimit:10;}
</style>
<g id="Layer_1_00000142141776280341060040000007539072808156983703_">
	<line class="st0" x1="77" y1="127" x2="76.5" y2="127.3"/>
	<path class="st1" d="M99.4,95.7l-2.6,4.1l-5,8l-7.1,11.4c-2,3.1-4.6,5.8-7.7,7.8l-0.4,0.3c-5.5,3.3-12.1,4.4-18.4,3l-24.5-5.6
		c-7.6-1.7-14-7-17.2-14.2L3.1,80.4c-3-6.8-2.8-14.5,0.5-21.1l10.9-21.8c3.4-6.9,9.9-11.8,17.5-13.3c1.8-0.3,3.6-0.5,5.4-0.5
		l8.9,0.2L61,24.4c8.9,0.2,17,5.2,21.2,13l18,33.4C104.4,78.7,104.1,88.2,99.4,95.7z"/>
	<path class="st2" d="M47.8,49.7l13.7,53.6c0.3,1.1,1.4,1.8,2.5,1.5c0.5-0.1,0.9-0.5,1.2-0.9l12-19.3c1.3-2.1,1.4-4.8,0.2-7
		C71.6,65.4,66,55,61,51.3L47.8,49.7z"/>
	<line class="st0" x1="58.9" y1="5.9" x2="58.2" y2="6.4"/>
	<path class="st3" d="M72,67.3"/>
	<path class="st3" d="M52,64.3"/>
	<path class="st4" d="M25.1,74.3l30.1,4.4l-7.4-29l-7.9-0.2c-3.4-0.1-6.6,1.8-8.2,4.9l-8.3,16.7c-0.6,1.1-0.1,2.5,1,3
		C24.6,74.2,24.8,74.3,25.1,74.3z"/>
	<path class="st5" d="M42.6,49.6l7.1,28.3l-24.8-3.6c-1.2-0.2-1.9-1.3-1.8-2.4c0-0.2,0.1-0.4,0.2-0.6l7.2-14.4
		C32.7,52.3,37.5,49.4,42.6,49.6L42.6,49.6z"/>
	<path class="st6" d="M42.6,49.6"/>
	<path class="st7" d="M51.5,64.3"/>
	<path class="st7" d="M71.5,66.8"/>
	<path class="st8" d="M24.5,74.3l30.7,4.4c0,0,7.3,24.5,6.5,25.5s-3.9,1.9-2.8,2c0.9,0.1-16.5-3.2-22.7-4.3c-1.3-0.2-2.5-1.1-3-2.4
		L23,76.3c-0.3-0.7,0-1.6,0.7-1.9C23.9,74.3,24.2,74.2,24.5,74.3z"/>
	<path class="st9" d="M75.8,74.5c2.2,4.1,2.1,9.2-0.4,13.2L74,89.8l-6.4,10.3c-2.9,4.7-8.6,7.1-14,5.9L40.7,103
		c-4-0.9-7.4-3.7-9.1-7.5l-7.1-16c-1.6-3.6-1.5-7.7,0.3-11.2l5.7-11.5c2.3-4.6,7-7.4,12.1-7.3l0,0l12.5,0.3c4.7,0.1,9,2.8,11.2,6.9
		L75.8,74.5z"/>
	<polyline class="st10" points="22.9,74.3 49.7,77.9 42.6,49.6 47.8,49.7 62.3,104.9 	"/>
	<line class="st11" x1="49.7" y1="77.9" x2="55.2" y2="78.7"/>
	<path d="M135.4,73.7l-2.6,4.1l-12.1,19.4c-2.4,3.8-5.7,6.9-9.7,8.9l0,0L77,127c3.1-2,5.8-4.7,7.8-7.8l7.1-11.4l5-8l2.6-4.1
		c4.7-7.6,5-17,0.8-24.9l-18-33.4C78,29.5,69.9,24.6,61,24.4L46.2,24l-8.9-0.2C40,21.3,34,21.3,24,27.3L58.2,6.4h0.1
		c4.4-3.2,9.7-4.8,15.1-4.6L97,2.4c8.9,0.2,17,5.2,21.2,13.1l18,33.4C140.4,56.7,140.1,66.2,135.4,73.7z"/>
	<path d="M136.2,74.3l-10.9,17.4c-1.7,2.6-3.7,6.3-5.7,8.7c-2.3,2.8-5.1,5-8.3,6.7c0.4-0.1-34,20.8-33.9,20.8s-1.1-1.7-1.1-1.7
		c2.6-1.6,4.8-3.8,6.6-6.3c1.4-2.1,3.6-5.7,5-8l10.1-16.2c5.1-7.9,5.2-18.1,0.2-26.1C95.5,64.4,87.8,50,84.8,44.5
		c-1.3-2.4-3.1-6-4.6-8.3C76,29.7,68.9,25.7,61.2,25.4c-3.2-0.1-20.3-0.6-23.8-0.7L36.7,23c0.2-0.2,0.3-0.4,0.3-0.3
		c0,0.1,0,0.2,0,0.3c0,0.1,0.1,0.2,0.2,0.3c0.1,0.1,0.1,0,0,0c-1.9,0.1-3.7,0.5-5.4,1.3c-2.5,1-4.8,2.4-7.4,3.4l-0.8-1.3
		c4.9-3.5,12.8-8,18-11.3l13.6-8.3c1.4-0.8,3.1-2,4.5-2.8c3.2-1.9,6.8-3,10.4-3.4c3.2-0.4,7.5,0.1,10.7,0.1l10.6,0.3
		c3.2,0.1,7.7,0,10.8,0.8c7.3,1.7,13.4,6.5,16.9,13.1l10.1,18.7c1.6,3,6,11.1,7.6,14C141.4,56.1,141.2,66.2,136.2,74.3L136.2,74.3z
		 M134.5,73.2c4.6-7.4,4.8-16.7,0.5-24.3c-1.6-2.9-5.9-11-7.6-14l-10.1-18.8C114.2,10,108.5,5.6,101.8,4c-2.9-0.8-7.4-0.6-10.4-0.8
		L80.8,2.9c-3,0.1-7.6-0.4-10.5-0.1c-4.3,0.4-8.4,2-11.8,4.5l-6.8,4.2C43.3,16.6,33,23.2,24.4,27.9l-0.8-1.3
		c1.1-0.9,2.3-1.7,3.6-2.3c2.5-1.3,5.2-2.3,8-3c1-0.1,2.3-0.5,3.3,0.3c1.1,0.8,0.4,2.2-0.4,2.8l-0.7-1.7l19,0.6
		c4.8,0,10,0.3,14.4,2.3c4.6,2,8.4,5.3,11.1,9.5c1.5,2.4,3.2,5.9,4.6,8.4l9,16.8c2.5,5.1,7.2,11.8,8,17.5c1.2,6.6-0.1,13.4-3.8,19
		c-1.8,2.8-11,17.7-12.6,20.2c-2.4,4.2-5.5,8.3-9.8,10.8c0,0-1.1-1.7-1.1-1.7s34-20.9,34.1-20.9c2.9-1.5,5.5-3.6,7.6-6.2
		C122,93.8,130.7,79.1,134.5,73.2L134.5,73.2z"/>
</g>
<g id="final">
	<path d="M224.3,11.8h9.7c0.3,0,0.5,0.1,0.7,0.4l21.2,28.5c0.3,0.4,0.8,0.5,1.2,0.2c0.2-0.2,0.4-0.4,0.4-0.7V12.7
		c0-0.5,0.4-0.9,0.9-0.9h9.3c0.5,0,0.9,0.4,0.9,0.9v93.8c0,0.5-0.4,0.9-0.9,0.9c-0.1,0-0.3,0-0.4-0.1l-12.3-5.8
		c-0.4-0.2-0.6-0.7-0.4-1.2c0.1-0.3,0.4-0.5,0.8-0.5h0.3c0.5,0,0.8-0.4,0.9-0.8l1-35.9c0-0.2,0-0.4-0.2-0.5L235.1,32
		c-0.3-0.4-0.8-0.5-1.2-0.2c-0.2,0.2-0.4,0.4-0.4,0.7v73c0,0.5-0.4,0.9-0.9,0.9c-0.1,0-0.2,0-0.3-0.1l-11-4.8
		c-0.4-0.2-0.6-0.7-0.4-1.2c0.1-0.3,0.4-0.5,0.8-0.5l0,0c0.5,0,0.9-0.4,0.9-0.9l1-86.3C223.5,12.2,223.9,11.8,224.3,11.8z"/>
	<path d="M283.1,11.3h7.8c0.6,0,1.1,0.5,1.1,1.1c0,0,0,0,0,0v93.2c0,0.6-0.5,1.1-1.1,1.1c-0.2,0-0.3,0-0.5-0.1l-11-5.2
		c-0.5-0.3-0.8-0.9-0.5-1.5c0.2-0.4,0.6-0.6,1-0.6l0,0c0.6,0,1.1-0.5,1.1-1.1c0,0,0,0,0,0l1-85.8C282,11.8,282.4,11.3,283.1,11.3
		C283,11.3,283.1,11.3,283.1,11.3z"/>
	<path d="M306.4,11.8h9.5c0.4,0,0.7,0.2,0.9,0.5l10.9,21.8c0.3,0.5,0.9,0.6,1.4,0.3c0.1-0.1,0.3-0.2,0.3-0.3l10.9-21.8
		c0.2-0.3,0.5-0.5,0.9-0.5h8.5c0.6,0,1,0.4,1,1v93.5c0,0.6-0.5,1-1.1,0.9c-0.1,0-0.2,0-0.3-0.1l-11-5.5c-0.5-0.3-0.6-0.9-0.3-1.4
		c0.2-0.2,0.4-0.4,0.7-0.4l0,0c0.5,0,0.9-0.4,1-0.9l0.9-57.9c-0.1-0.5-0.6-0.9-1.1-0.9c-0.3,0-0.5,0.2-0.7,0.4l-9.3,18.6
		c-0.3,0.5-0.9,0.6-1.4,0.3c-0.1-0.1-0.2-0.2-0.3-0.3l-10.3-19.1c-0.3-0.4-1-0.5-1.4-0.2c-0.2,0.2-0.4,0.4-0.4,0.7v65.7
		c0,0.6-0.5,1-1.1,0.9c-0.1,0-0.2,0-0.3-0.1l-11-5.5c-0.5-0.3-0.6-0.9-0.3-1.4c0.2-0.2,0.4-0.4,0.7-0.4l0,0c0.6,0,1-0.4,1-1l1-86.1
		C305.5,12.2,305.9,11.8,306.4,11.8z"/>
	<path d="M410.5,19.7v-4.9c0-1.7-1.4-3.1-3.1-3.1h-25.1c-0.5,0-1.1,0.1-1.5,0.4L366,20.9c-0.9,0.5-1.5,1.5-1.5,2.6l-1,75.3
		c0,0.5-0.5,0.9-1,0.9l0,0c-0.5,0.1-0.9,0.6-0.8,1.1c0,0.3,0.2,0.5,0.4,0.7l8,4c1.5,0.8,3.4,0.1,4.1-1.4c0.2-0.4,0.3-0.9,0.3-1.3
		l0,0c0-1.7,1.4-3.1,3.1-3.1h29.9c1.7,0,3.1-1.4,3.1-3.1v-4.9c0-1.7-1.4-3.1-3.1-3.1h-25.1c-0.5,0-1,0.1-1.5,0.4l-1.7,1
		c-1.5,0.8-3.3,0.3-4.2-1.2c-0.3-0.5-0.4-1-0.4-1.5V64.8c0-1.7,1.4-3.1,3.1-3.1h12.9c1.7,0,3.1-1.4,3.1-3.1v-3.9
		c0-1.7-1.4-3.1-3.1-3.1h-12.9c-1.7,0-3.1-1.4-3.1-3.1V25.9c0-1.7,1.4-3.1,3.1-3.1h29.9C409.1,22.8,410.5,21.4,410.5,19.7z"/>
	<path class="st12" d="M469.5,11.8h-27.8c-0.2,0-0.3,0-0.5,0.1l-5.4,3c-0.5,0.2-1.1,0-1.3-0.5c-0.1-0.1-0.1-0.2-0.1-0.4v-1.4
		c0-0.6-0.4-1-1-1h-8.1c-0.5,0-1,0.4-1,1l-1,86.1c0,0.6-0.4,1-1,1c-0.5,0.1-0.9,0.6-0.8,1.1c0,0.3,0.2,0.5,0.4,0.7l11,5.5
		c0.5,0.2,1.1,0,1.3-0.5c0-0.1,0.1-0.2,0.1-0.3V59.3c0-0.6,0.5-1,1.1-0.9c0.1,0,0.2,0,0.3,0.1l6.4,3.2c0.1,0.1,0.3,0.1,0.4,0.1h16.9
		L470.3,45c0.1-0.2,0.1-0.3,0.1-0.5V12.7C470.4,12.2,470,11.8,469.5,11.8z M459.5,47.5c0,1.8-1.5,3.2-3.2,3.2h-18.5
		c-1.8,0-3.2-1.5-3.2-3.2V26c0-1.8,1.5-3.2,3.2-3.2h18.5c1.8,0,3.2,1.5,3.2,3.2V47.5z"/>
	<path class="st12" d="M486.6,11.8h6.7c0.6,0,1.1,0.5,1.2,1.1c0,0,0,0,0,0v75.7c0,0.6,0.5,1.1,1.1,1.2c0,0,0,0,0,0h33.7
		c0.6,0,1.1,0.5,1.2,1.1c0,0,0,0,0,0v8.7c0,0.6-0.5,1.1-1.1,1.2c0,0,0,0,0,0h-34.9v5.1c0,0.6-0.5,1.1-1.2,1.1c-0.2,0-0.3,0-0.5-0.1
		l-10-5c-0.6-0.3-0.8-1-0.5-1.5c0.2-0.4,0.6-0.6,1-0.6l0,0c0.6,0,1.1-0.5,1.1-1.1l1-85.7C485.5,12.3,486,11.8,486.6,11.8z"/>
	<path class="st12" d="M553.3,11.8h-6.7c-0.6,0-1.1,0.5-1.2,1.1l-1,85.7c0,0.6-0.5,1.1-1.2,1.1l0,0c-0.6,0-1.1,0.5-1.1,1.2
		c0,0.4,0.2,0.8,0.6,1l10,5c0.6,0.3,1.3,0,1.5-0.5c0.1-0.1,0.1-0.3,0.1-0.5v-4c0-0.6,0.5-1.1,1.1-1.2c0,0,0,0,0,0h33.7
		c0.6,0,1.1-0.5,1.2-1.1c0,0,0,0,0,0V12.9c0-0.6-0.5-1.1-1.1-1.1c0,0,0,0,0,0h-6.7c-0.6,0-1.1,0.5-1.1,1.1l-1,74.7
		c0,0.6-0.5,1.1-1.1,1.1h-23.7c-0.6,0-1.1-0.5-1.2-1.1c0,0,0,0,0,0V12.9C554.5,12.3,554,11.8,553.3,11.8
		C553.3,11.8,553.3,11.8,553.3,11.8z"/>
	<path class="st12" d="M649.3,39.8h-7.7c-0.6,0-1.1-0.5-1.2-1.1c0,0,0,0,0,0V23.9c0-0.6-0.5-1.1-1.1-1.2c0,0,0,0,0,0h-23.7
		c-0.6,0-1.1,0.5-1.2,1.1c0,0,0,0,0,0v25.7c0,0.6,0.5,1.1,1.1,1.2c0,0,0,0,0,0h33.7c0.6,0,1.1,0.5,1.2,1.1c0,0,0,0,0,0v47.7
		c0,0.6-0.5,1.1-1.1,1.2c0,0,0,0,0,0h-33.7c-0.6,0-1.1,0.5-1.2,1.1c0,0,0,0,0,0v4c0,0.6-0.5,1.1-1.2,1.1c-0.2,0-0.3,0-0.5-0.1l-10-5
		c-0.6-0.3-0.8-1-0.5-1.6c0.2-0.4,0.6-0.6,1-0.6l0,0c0.6,0,1.1-0.5,1.2-1.1c0,0,0,0,0,0V74.9c0-0.6,0.5-1.1,1.1-1.2c0,0,0,0,0,0h7.7
		c0.6,0,1.1,0.5,1.2,1.1c0,0,0,0,0,0v12.7c0,0.6,0.5,1.1,1.1,1.2c0,0,0,0,0,0h22.7c0.6,0,1.1-0.5,1.2-1.1c0,0,0,0,0,0V63.9
		c0-0.6-0.5-1.1-1.1-1.1c0,0,0,0,0,0l-32.2,0.2c-0.6,0-1.2-0.5-1.2-1.2l0.5-49c0-0.6,0.5-1.1,1.1-1.1h42.7c0.6,0,1.1,0.5,1.2,1.1
		c0,0,0,0,0,0v25.7C650.5,39.2,650,39.8,649.3,39.8C649.4,39.8,649.3,39.8,649.3,39.8z"/>
	<path d="M209,6.5l-13.7-6.4c-0.5-0.2-1.1,0.1-1.3,0.6c-0.1,0.2-0.1,0.5,0,0.7l4.7,8c0.5,0.9,0.7,1.9,0.6,2.9l-0.7,7
		c-0.1,0.9-0.4,1.8-1,2.6l-68.7,93.3c-0.3,0.3-0.7,0.5-1.1,0.3l-2.7-1c-0.5-0.1-1.1,0.2-1.2,0.7c-0.1,0.2,0,0.5,0.1,0.7l7.7,11.8
		c0.3,0.4,1,0.5,1.4,0.2c0.1,0,0.1-0.1,0.2-0.2l47.9-65.5c0.2-0.2,0.4-0.4,0.7-0.4l15.5-0.9c0.6,0,1,0.4,1,1v36c0,0.5-0.4,1-0.9,1
		c-0.5,0.1-0.9,0.6-0.8,1.1c0,0.3,0.2,0.5,0.4,0.7l11,5.5c0.5,0.2,1.1,0,1.3-0.5c0-0.1,0.1-0.2,0.1-0.3V7.4
		C209.5,7,209.3,6.7,209,6.5z M200,49.6c0,0.4-0.3,0.7-0.7,0.7l-8.3,0.4c-0.4,0-0.8-0.3-0.8-0.7c0-0.2,0-0.3,0.1-0.5l8.3-11.4
		c0.2-0.3,0.7-0.4,1-0.2c0.2,0.1,0.3,0.4,0.3,0.6V49.6z"/>
	<path d="M364.5,21.8v-7.6c0-1.3,1.1-2.4,2.4-2.4h14.6"/>
	<path class="st12" d="M614.5,22.8"/>
</g>
<line class="st13" x1="645" y1="119" x2="149" y2="119"/>
</svg>
